<svg width="21" height="20" viewBox="0 0 21 20" fill="none" xmlns="http://www.w3.org/2000/svg">
<path fill-rule="evenodd" clip-rule="evenodd" d="M13.4663 17.931H14.3138C14.6625 17.931 14.9459 18.2145 14.9459 18.5631V19.3679C14.9459 19.7166 14.6625 20 14.3138 20H5.9228C5.57418 20 5.29073 19.7166 5.29073 19.3679V18.5631C5.29073 18.2145 5.57418 17.931 5.9228 17.931H6.77004L7.23246 16.6059C7.34694 16.2034 7.81556 15.9293 8.2397 15.8738L8.79625 15.3172C8.88901 15.2245 8.90798 15.0803 8.8428 14.9669C8.29487 14.0103 8.48315 12.7141 8.64453 12.0266C8.66729 11.9283 8.64108 11.8241 8.57694 11.7617C7.60729 10.8179 8.04418 9.27828 8.06315 9.21345L8.07901 9.17035C8.13349 9.04759 8.17039 8.90897 8.18867 8.75724C8.25694 8.19345 7.9228 7.71138 7.71763 7.47414C6.92487 6.55793 7.09315 5.00241 7.26418 4.15621C7.34315 3.76586 7.63108 3.45552 8.01591 3.34552L9.20453 3.00586C8.92108 2.69 8.73901 2.23517 8.73901 1.72414C8.73901 0.773448 9.35763 0 10.1183 0C10.879 0 11.4976 0.773448 11.4976 1.72414C11.4976 2.23517 11.3156 2.69 11.0321 3.00586L12.2211 3.34552C12.6056 3.45552 12.8935 3.76586 12.9725 4.15621C13.1435 5.00241 13.3118 6.55793 12.519 7.47414C12.3138 7.71138 11.9797 8.19345 12.048 8.75724C12.0663 8.90897 12.1031 9.04759 12.1576 9.17035L12.1731 9.21345C12.1925 9.27828 12.6294 10.8179 11.6597 11.7617C11.5956 11.8241 11.569 11.9283 11.5921 12.0266C11.7535 12.7141 11.9418 14.0103 11.3938 14.9669C11.3287 15.0803 11.3476 15.2245 11.4404 15.3172L11.9969 15.8738C12.4211 15.9297 12.8904 16.2055 13.01 16.6248L13.4663 17.931ZM8.39418 16.5517C8.18108 16.5517 7.92073 16.7041 7.8897 16.8141L7.50039 17.931H12.7363L12.3528 16.8328C12.3159 16.7041 12.0556 16.5517 11.8425 16.5517H8.39418Z" fill="#0C1932" fill-opacity="0.6"/>
</svg>
